<svg id="Capa_1" enable-background="new 0 0 512 512" height="512" viewBox="0 0 512 512" width="512" xmlns="http://www.w3.org/2000/svg" xmlns:xlink="http://www.w3.org/1999/xlink"><linearGradient id="SVGID_1_" gradientUnits="userSpaceOnUse" x1="15.63" x2="496.37" y1="256" y2="256"><stop offset=".0485" stop-color="#d2deff"/><stop offset=".9993" stop-color="#dcfdee"/></linearGradient><linearGradient id="SVGID_2_" gradientUnits="userSpaceOnUse" x1="236.396" x2="236.396" y1="188.758" y2="410.593"><stop offset=".0028" stop-color="#ff7eb8" stop-opacity="0"/><stop offset="1" stop-color="#ff7eb8" stop-opacity=".6"/></linearGradient><g><g><g><path d="m20.722 179.563c26.255 85.007 107.775 89.005 182.131 93.553 244.867 14.978-63.002 218.186 146.697 238.304 77.136 7.4 157.788-56.956 145.59-140.291-11.107-75.879-121.152-121.073-121.207-191.979-.043-55.945 103.86-96.409 36.272-156.553-60.249-53.612-442.871-15.888-389.483 156.966z" fill="url(#SVGID_1_)"/></g><g><g><g><g><g><path d="m308.475 410.593h-144.157c-29.481 0-53.38-23.899-53.38-53.38v-159.903c0-4.724 3.829-8.553 8.553-8.553h233.811c4.723 0 8.553 3.829 8.553 8.553v159.903c0 29.481-23.899 53.38-53.38 53.38z" fill="#b7c5ff"/><path d="m361.854 223.711v-26.401c0-4.724-3.829-8.553-8.552-8.553h-233.811c-4.723 0-8.553 3.829-8.553 8.553v26.401z" fill="#fff"/><path d="m306.63 347.385v44.6c0 2.76-2.24 5-5 5h-172.92c-10.91-9.78-17.77-23.97-17.77-39.77v-59.43h146.09c27.39 0 49.6 22.2 49.6 49.6z" fill="#9fb0fe"/><g><g><path d="m361.85 197.315v65.56c-5.57 1.49-11.43 2.28-17.47 2.28h-57.89c-5.53 0-10-4.47-10-10v-57.88c0-2.89.18-5.73.53-8.52h76.28c4.73 0 8.55 3.83 8.55 8.56z" fill="#9fb0fe"/></g></g><g><path d="m393.311 209.268h-31.456v25.658h31.456c25.244 0 45.782 20.538 45.782 45.782s-20.538 45.782-45.782 45.782h-31.456v25.658h31.456c39.392 0 71.44-32.048 71.44-71.44s-32.048-71.44-71.44-71.44z" fill="#fff"/></g></g><path d="m308.475 410.593h-144.157c-29.481 0-53.38-23.899-53.38-53.38v-159.903c0-4.724 3.829-8.553 8.553-8.553h233.811c4.723 0 8.553 3.829 8.553 8.553v159.903c0 29.481-23.899 53.38-53.38 53.38z" fill="url(#SVGID_2_)"/><g><path d="m301.627 377.099h-204.777c-27.394 0-49.601-22.207-49.601-49.601 0-27.394 22.207-49.601 49.601-49.601h160.176c27.394 0 49.601 22.207 49.601 49.601v44.601c0 2.761-2.239 5-5 5z" fill="#02ffb3"/><path d="m146.634 287.485c0 23.94-19.4 43.34-43.34 43.34-21.78 0-39.8-16.07-42.87-37 .44-.48.89-.94 1.35-1.4 8.98-8.98 21.38-14.53 35.08-14.53h48.71c.7 3.08 1.07 6.29 1.07 9.59z" fill="#01eca5"/><g><g><path d="m271.486 334.498h-181.519c-2.762 0-5-2.239-5-5s2.238-5 5-5h181.519c2.762 0 5 2.239 5 5s-2.238 5-5 5z" fill="#fff"/></g><g><path d="m271.486 353.155h-181.519c-2.762 0-5-2.239-5-5s2.238-5 5-5h181.519c2.762 0 5 2.239 5 5s-2.238 5-5 5z" fill="#fff"/></g></g><g><g><path d="m271.486 315.841h-61.52c-2.762 0-5-2.239-5-5s2.238-5 5-5h61.52c2.762 0 5 2.239 5 5s-2.238 5-5 5z" fill="#fff"/></g></g><g><ellipse cx="103.297" cy="268.988" fill="#ff7eb8" rx="43.333" ry="43.333" transform="matrix(.174 -.985 .985 .174 -179.563 323.895)"/><path d="m119.911 263.181c0-9.161-7.453-16.613-16.613-16.613-9.161 0-16.613 7.453-16.613 16.613 0 4.518 1.818 8.615 4.755 11.613-2.936 2.998-4.755 7.095-4.755 11.613 0 2.761 2.239 5 5 5s5-2.239 5-5c0-3.646 2.967-6.613 6.613-6.613s6.613 2.967 6.613 6.613c0 2.761 2.239 5 5 5s5-2.239 5-5c0-4.518-1.818-8.615-4.755-11.613 2.937-2.997 4.755-7.094 4.755-11.613zm-16.614-6.613c3.646 0 6.613 2.967 6.613 6.613s-2.967 6.613-6.613 6.613-6.613-2.967-6.613-6.613 2.967-6.613 6.613-6.613z" fill="#fff"/></g><path d="m125.864 324.495c-6.57 4.01-14.3 6.33-22.57 6.33-6.3 0-12.29-1.35-17.69-3.77.85-1.53 2.49-2.56 4.36-2.56z" fill="#dcfdee"/></g></g><g><g><g><path d="m286.486 245.276h57.89c37.494 0 67.889-30.395 67.889-67.89 0-37.494-30.395-67.889-67.889-67.889-37.494 0-67.89 30.395-67.89 67.889v57.89c0 5.523 4.478 10 10 10z" fill="#ff7eb8"/></g></g><path d="m327.234 210.782c-2.521 0-5.042-.962-6.966-2.885l-6.568-6.568c-3.847-3.847-3.847-10.085 0-13.932l40.523-40.523c3.848-3.846 10.084-3.846 13.932 0l6.896 6.896c3.847 3.847 3.847 10.085 0 13.932-3.824 3.823-10.009 3.849-13.862.069l-26.602 26.603c3.456 3.868 3.327 9.809-.387 13.522-1.924 1.924-4.444 2.886-6.966 2.886z" fill="#fff"/></g></g></g><path d="m85.604 456.753c-1.279 0-2.56-.488-3.535-1.464l-11-11c-1.953-1.953-1.953-5.119 0-7.071l11-11c1.951-1.952 5.119-1.952 7.07 0l11 11c1.953 1.953 1.953 5.119 0 7.071l-11 11c-.976.976-2.256 1.464-3.535 1.464zm-3.929-16 3.929 3.929 3.929-3.929-3.929-3.929z" fill="#01eca5"/><path d="m374.134 83.861c-1.279 0-2.56-.488-3.535-1.464l-11-11c-1.953-1.953-1.953-5.119 0-7.071l11-11c1.951-1.952 5.119-1.952 7.07 0l11 11c1.953 1.953 1.953 5.119 0 7.071l-11 11c-.976.976-2.256 1.464-3.535 1.464zm-3.929-16 3.929 3.929 3.929-3.929-3.929-3.929z" fill="#01eca5"/><path d="m413.303 119.968c-2.762 0-5-2.239-5-5 0-3.309-2.691-6-6-6-2.762 0-5-2.239-5-5s2.238-5 5-5c3.309 0 6-2.691 6-6 0-2.761 2.238-5 5-5s5 2.239 5 5c0 3.309 2.691 6 6 6 2.762 0 5 2.239 5 5s-2.238 5-5 5c-3.309 0-6 2.691-6 6 0 2.761-2.238 5-5 5z" fill="#ff7eb8"/><path d="m105.734 167.123c-2.762 0-5-2.239-5-5 0-3.308-2.692-6-6.001-6-2.762 0-5-2.239-5-5s2.238-5 5-5c3.309 0 6.001-2.692 6.001-6 0-2.761 2.238-5 5-5s5 2.239 5 5c0 3.309 2.691 6 5.999 6 2.762 0 5 2.239 5 5s-2.238 5-5 5c-3.308 0-5.999 2.692-5.999 6 0 2.761-2.238 5-5 5z" fill="#ff7eb8"/><path d="m85.604 116.861c-2.762 0-5-2.239-5-5 0-3.309-2.691-6-6-6-2.762 0-5-2.239-5-5s2.238-5 5-5c3.309 0 6-2.691 6-6 0-2.761 2.238-5 5-5s5 2.239 5 5c0 3.309 2.691 6 6 6 2.762 0 5 2.239 5 5s-2.238 5-5 5c-3.309 0-6 2.691-6 6 0 2.761-2.239 5-5 5z" fill="#6583fe"/></g></g><g fill="#6583fe"><path d="m164 77.407c0-2.761-2.238-5-5-5s-5 2.239-5 5c0 4.138-1.231 5.897-3.096 8.561-2.186 3.121-4.904 7.005-4.904 14.295 0 7.291 2.719 11.176 4.903 14.297 1.865 2.664 3.097 4.424 3.097 8.562 0 4.139-1.231 5.899-3.097 8.562-2.184 3.122-4.903 7.006-4.903 14.297 0 2.761 2.238 5 5 5s5-2.239 5-5c0-4.139 1.231-5.899 3.097-8.562 2.185-3.122 4.903-7.006 4.903-14.297 0-7.29-2.719-11.175-4.903-14.297-1.865-2.664-3.097-4.424-3.097-8.563 0-4.138 1.231-5.897 3.096-8.561 2.185-3.12 4.904-7.004 4.904-14.294z"/><path d="m205.967 77.407c0-2.761-2.238-5-5-5s-5 2.239-5 5c0 4.138-1.231 5.897-3.096 8.561-2.186 3.121-4.904 7.005-4.904 14.295 0 7.291 2.719 11.176 4.903 14.297 1.865 2.664 3.097 4.424 3.097 8.562 0 4.139-1.231 5.899-3.097 8.562-2.185 3.122-4.903 7.006-4.903 14.297 0 2.761 2.238 5 5 5s5-2.239 5-5c0-4.139 1.231-5.899 3.097-8.562 2.184-3.122 4.903-7.006 4.903-14.297 0-7.29-2.719-11.175-4.903-14.297-1.865-2.664-3.097-4.424-3.097-8.563 0-4.138 1.231-5.897 3.096-8.561 2.185-3.12 4.904-7.004 4.904-14.294z"/><path d="m247.934 77.407c0-2.761-2.238-5-5-5s-5 2.239-5 5c0 4.138-1.232 5.897-3.096 8.561-2.186 3.121-4.904 7.005-4.904 14.295 0 7.291 2.719 11.176 4.903 14.297 1.865 2.664 3.097 4.424 3.097 8.562 0 4.139-1.232 5.899-3.097 8.562-2.185 3.122-4.903 7.006-4.903 14.297 0 2.761 2.238 5 5 5s5-2.239 5-5c0-4.139 1.231-5.899 3.097-8.562 2.185-3.122 4.903-7.006 4.903-14.297 0-7.29-2.719-11.175-4.903-14.297-1.865-2.664-3.097-4.424-3.097-8.563 0-4.138 1.231-5.897 3.096-8.561 2.185-3.12 4.904-7.004 4.904-14.294z"/></g></g></svg>